<svg width="96" height="96" viewBox="0 0 96 96" fill="none" xmlns="http://www.w3.org/2000/svg">
<defs>
    <!-- background -->
    <radialGradient id="bg" cx="50%" cy="50%" r="70%">
      <stop offset="0%" stop-color="#1a1a1a"/>
      <stop offset="100%" stop-color="#000000"/>
    </radialGradient>

    <!-- New gradient -->
    <linearGradient id="neon" x1="0%" y1="0%" x2="100%" y2="100%">
      <stop offset="0%" stop-color="#6200EE"/>
      <stop offset="50%" stop-color="#00674F"/>
      <stop offset="100%" stop-color="#88E788"/>
    </linearGradient>

    <!-- Glow filter -->
    <filter id="glow" x="-50%" y="-50%" width="200%" height="200%">
      <feDropShadow dx="0" dy="0" stdDeviation="1.5" flood-color="#6200EE" flood-opacity="0.6"/>
      <feDropShadow dx="0" dy="0" stdDeviation="2.5" flood-color="#00674F" flood-opacity="0.5"/>
      <feDropShadow dx="0" dy="0" stdDeviation="3.5" flood-color="#88E788" flood-opacity="0.4"/>
    </filter>
  </defs>

<path d="M87.36 17.28C87.36 12.5083 83.4917 8.64 78.72 8.64H17.28C12.5083 8.64 8.64 12.5083 8.64 17.28V78.72C8.64 83.4917 12.5083 87.36 17.28 87.36H78.72C83.4917 87.36 87.36 83.4917 87.36 78.72V17.28ZM93.12 78.72C93.12 86.6729 86.6729 93.12 78.72 93.12H17.28C9.3271 93.12 2.88 86.6729 2.88 78.72V17.28C2.88 9.3271 9.3271 2.88 17.28 2.88H78.72C86.6729 2.88 93.12 9.3271 93.12 17.28V78.72Z" fill="#FFF"/>

<path d="M83.533 28.9204C84.1774 25.2654 81.7369 21.78 78.082 21.1355L28.9204 12.467C25.2654 11.8226 21.78 14.2631 21.1356 17.918L12.467 67.0796C11.8226 70.7346 14.2631 74.22 17.918 74.8644L67.0796 83.533C70.7346 84.1774 74.22 81.7369 74.8644 78.082L83.533 28.9204ZM80.5369 79.0822C79.3401 85.87 72.8672 90.4023 66.0794 89.2055L16.9178 80.5369C10.13 79.3401 5.59767 72.8672 6.79454 66.0794L15.4631 16.9178C16.6599 10.13 23.1328 5.59767 29.9206 6.79454L79.0822 15.4631C85.87 16.6599 90.4023 23.1328 89.2055 29.9206L80.5369 79.0822Z" fill="#FFF"/>

<path d="M77.1194 38.1664C78.0261 35.6753 76.7417 32.9209 74.2506 32.0142L38.1664 18.8806C35.6753 17.9739 32.9208 19.2583 32.0142 21.7494L18.8806 57.8336C17.9739 60.3247 19.2583 63.0792 21.7494 63.9858L57.8336 77.1194C60.3247 78.0261 63.0791 76.7417 63.9858 74.2506L77.1194 38.1664ZM69.3985 76.2206C67.4038 81.701 61.344 84.5267 55.8636 82.532L19.7794 69.3985C14.299 67.4038 11.4732 61.344 13.468 55.8636L26.6015 19.7794C28.5962 14.299 34.656 11.4733 40.1364 13.468L76.2206 26.6015C81.701 28.5962 84.5267 34.656 82.532 40.1364L69.3985 76.2206Z" fill="#FFF"/>

<path d="M68.8535 44.5206C69.6488 43.1431 69.1769 41.3818 67.7994 40.5865L44.5206 27.1465C43.1431 26.3512 41.3817 26.8231 40.5865 28.2006L27.1465 51.4794C26.3512 52.8569 26.8231 54.6182 28.2006 55.4135L51.4794 68.8535C52.8569 69.6488 54.6182 69.1769 55.4135 67.7994L68.8535 44.5206ZM60.4018 70.6794C58.016 74.8118 52.7318 76.2277 48.5994 73.8418L25.3206 60.4018C21.1882 58.016 19.7723 52.7318 22.1582 48.5994L35.5982 25.3206C37.984 21.1882 43.2682 19.7723 47.4006 22.1582L70.6794 35.5982C74.8118 37.984 76.2277 43.2682 73.8418 47.4006L60.4018 70.6794Z" fill="#FFF"/>

</svg>
