<svg width="640" height="89" viewBox="0 0 640 89" fill="none" xmlns="http://www.w3.org/2000/svg">
<path d="M623.681 87.296L580.281 42.408L622.813 1.23999H637.941L592.061 45.384V38.936L639.181 87.296H623.681ZM570.485 87.296V1.23999H582.141V87.296H570.485Z" fill="#6200EE"/>
<path d="M524.174 88.536C517.974 88.536 512.229 87.42 506.938 85.188C501.647 82.8733 497.018 79.6906 493.05 75.64C489.165 71.5893 486.147 66.8773 483.998 61.504C481.849 56.1306 480.774 50.3853 480.774 44.268C480.774 38.068 481.849 32.2813 483.998 26.908C486.147 21.5346 489.165 16.864 493.05 12.896C497.018 8.8453 501.606 5.70397 506.814 3.47197C512.105 1.1573 517.85 -3.05176e-05 524.05 -3.05176e-05C530.829 -3.05176e-05 536.781 1.1573 541.906 3.47197C547.031 5.78664 551.578 8.92797 555.546 12.896L547.486 20.956C544.758 17.8973 541.41 15.5 537.442 13.764C533.557 12.028 529.093 11.16 524.05 11.16C519.503 11.16 515.329 11.9866 511.526 13.64C507.723 15.2106 504.417 17.484 501.606 20.46C498.795 23.436 496.605 26.9493 495.034 31C493.546 35.0506 492.802 39.4733 492.802 44.268C492.802 49.0626 493.546 53.4853 495.034 57.536C496.605 61.5866 498.795 65.1 501.606 68.076C504.417 71.052 507.723 73.3666 511.526 75.02C515.329 76.5906 519.503 77.376 524.05 77.376C529.423 77.376 534.094 76.508 538.062 74.772C542.03 72.9533 545.378 70.5146 548.106 67.456L556.166 75.392C552.198 79.5253 547.527 82.7493 542.154 85.064C536.863 87.3786 530.87 88.536 524.174 88.536Z" fill="#6200EE"/>
<path d="M398.868 87.296L434.084 1.23999H442.516L477.608 87.296H464.96L436.068 14.508H440.408L411.268 87.296H398.868ZM415.608 67.828V57.66H460.868V67.828H415.608Z" fill="#6200EE"/>
<path d="M363.102 87.296V3.71999H374.758V87.296H363.102ZM333.838 11.904V1.23999H403.898V11.904H333.838Z" fill="#6200EE"/>
<path d="M299.433 88.536C292.654 88.536 286.867 87.296 282.073 84.816C277.278 82.336 273.021 78.74 269.301 74.028L277.237 66.092C279.965 69.8946 283.106 72.788 286.661 74.772C290.215 76.6733 294.597 77.624 299.805 77.624C304.93 77.624 309.022 76.508 312.081 74.276C315.222 72.044 316.793 68.9853 316.793 65.1C316.793 61.876 316.049 59.272 314.561 57.288C313.073 55.304 311.047 53.692 308.485 52.452C306.005 51.1293 303.277 49.972 300.301 48.98C297.325 47.9053 294.349 46.7893 291.373 45.632C288.397 44.392 285.669 42.904 283.189 41.168C280.709 39.3493 278.683 36.9933 277.113 34.1C275.625 31.2066 274.881 27.5693 274.881 23.188C274.881 18.3106 276.038 14.1773 278.353 10.788C280.75 7.31597 283.974 4.67064 288.025 2.85197C292.158 0.950636 296.787 -3.05176e-05 301.913 -3.05176e-05C307.534 -3.05176e-05 312.577 1.11597 317.041 3.34797C321.505 5.4973 325.142 8.3493 327.953 11.904L320.017 19.84C317.454 16.864 314.685 14.632 311.709 13.144C308.815 11.656 305.467 10.912 301.665 10.912C297.035 10.912 293.357 11.9453 290.629 14.012C287.901 15.996 286.537 18.8066 286.537 22.444C286.537 25.3373 287.281 27.6933 288.769 29.512C290.339 31.248 292.365 32.736 294.845 33.976C297.325 35.216 300.053 36.3733 303.029 37.448C306.087 38.44 309.105 39.556 312.081 40.796C315.057 42.036 317.785 43.6066 320.265 45.508C322.745 47.4093 324.729 49.8893 326.217 52.948C327.787 55.924 328.573 59.6853 328.573 64.232C328.573 71.8373 325.927 77.7893 320.637 82.088C315.429 86.3866 308.361 88.536 299.433 88.536Z" fill="#6200EE"/>
<path d="M230.643 88.536C224.443 88.536 218.698 87.42 213.407 85.188C208.116 82.8733 203.487 79.6906 199.519 75.64C195.634 71.5893 192.616 66.8773 190.467 61.504C188.318 56.1306 187.243 50.3853 187.243 44.268C187.243 38.068 188.318 32.2813 190.467 26.908C192.616 21.5346 195.634 16.864 199.519 12.896C203.487 8.8453 208.075 5.70397 213.283 3.47197C218.574 1.1573 224.319 -3.05176e-05 230.519 -3.05176e-05C237.298 -3.05176e-05 243.25 1.1573 248.375 3.47197C253.5 5.78664 258.047 8.92797 262.015 12.896L253.955 20.956C251.227 17.8973 247.879 15.5 243.911 13.764C240.026 12.028 235.562 11.16 230.519 11.16C225.972 11.16 221.798 11.9866 217.995 13.64C214.192 15.2106 210.886 17.484 208.075 20.46C205.264 23.436 203.074 26.9493 201.503 31C200.015 35.0506 199.271 39.4733 199.271 44.268C199.271 49.0626 200.015 53.4853 201.503 57.536C203.074 61.5866 205.264 65.1 208.075 68.076C210.886 71.052 214.192 73.3666 217.995 75.02C221.798 76.5906 225.972 77.376 230.519 77.376C235.892 77.376 240.563 76.508 244.531 74.772C248.499 72.9533 251.847 70.5146 254.575 67.456L262.635 75.392C258.667 79.5253 253.996 82.7493 248.623 85.064C243.332 87.3786 237.339 88.536 230.643 88.536Z" fill="black"/>
<path d="M131.591 88.536C125.474 88.536 119.77 87.42 114.479 85.188C109.188 82.8733 104.559 79.6906 100.591 75.64C96.6231 71.5066 93.5231 66.7533 91.2911 61.38C89.1418 56.0066 88.0671 50.2613 88.0671 44.144C88.0671 37.944 89.1418 32.1986 91.2911 26.908C93.5231 21.5346 96.5817 16.8226 100.467 12.772C104.435 8.7213 109.023 5.57997 114.231 3.34797C119.522 1.11597 125.226 -3.05176e-05 131.343 -3.05176e-05C137.46 -3.05176e-05 143.123 1.11597 148.331 3.34797C153.622 5.57997 158.251 8.7213 162.219 12.772C166.187 16.8226 169.287 21.5346 171.519 26.908C173.751 32.2813 174.867 38.068 174.867 44.268C174.867 50.3853 173.751 56.1306 171.519 61.504C169.287 66.8773 166.187 71.5893 162.219 75.64C158.334 79.6906 153.746 82.8733 148.455 85.188C143.247 87.42 137.626 88.536 131.591 88.536ZM131.343 77.376C137.543 77.376 142.958 75.9706 147.587 73.16C152.299 70.2666 156.019 66.34 158.747 61.38C161.475 56.3373 162.839 50.592 162.839 44.144C162.839 39.3493 162.054 34.968 160.483 31C158.912 26.9493 156.722 23.436 153.911 20.46C151.1 17.484 147.794 15.2106 143.991 13.64C140.188 11.9866 135.972 11.16 131.343 11.16C125.226 11.16 119.811 12.5653 115.099 15.376C110.47 18.1866 106.791 22.072 104.063 27.032C101.418 31.992 100.095 37.696 100.095 44.144C100.095 48.9386 100.839 53.4026 102.327 57.536C103.898 61.5866 106.047 65.1 108.775 68.076C111.586 70.9693 114.892 73.2426 118.695 74.896C122.58 76.5493 126.796 77.376 131.343 77.376Z" fill="black"/>
<path d="M8.30598 87.296V76.632H32.238C38.6033 76.632 44.1833 75.268 48.978 72.54C53.7726 69.7293 57.4926 65.8853 60.138 61.008C62.866 56.1307 64.23 50.5093 64.23 44.144C64.23 37.8613 62.866 32.2813 60.138 27.404C57.41 22.5267 53.6486 18.724 48.854 15.996C44.0593 13.268 38.5206 11.904 32.238 11.904H8.42998V1.23999H32.486C38.7686 1.23999 44.5553 2.31466 49.846 4.46399C55.2193 6.61332 59.8486 9.63065 63.734 13.516C67.702 17.4013 70.7606 21.948 72.91 27.156C75.142 32.364 76.258 38.068 76.258 44.268C76.258 50.3853 75.142 56.0893 72.91 61.38C70.7606 66.588 67.7433 71.1347 63.858 75.02C59.9726 78.9053 55.3433 81.9227 49.97 84.072C44.6793 86.2213 38.934 87.296 32.734 87.296H8.30598ZM0.617981 87.296V1.23999H12.274V87.296H0.617981Z" fill="black"/>
</svg>
